<svg xmlns="http://www.w3.org/2000/svg" xmlns:xlink="http://www.w3.org/1999/xlink" viewBox="0 0 140 140">
  <defs>
    <linearGradient id="ui-logo-a" x1="6.205%" y1="71.066%" y2="50.706%">
      <stop offset="0%" stop-color="#D55F67"/>
      <stop offset="100%" stop-color="#453A94"/>
    </linearGradient>
    <path id="ui-logo-b" d="M93.1175595,13.8555915 L80.9200595,5.95744681e-05 L59.5000595,5.95744681e-05 L38.0800595,5.95744681e-05 L25.8825595,13.8555915 C25.8825595,13.8555915 15.1725595,10.8768681 10.1150595,15.9406979 C10.1150595,15.9406979 24.3950595,14.650017 29.3038095,22.6428255 C29.3038095,22.6428255 42.5425595,25.1747404 44.3275595,25.1747404 C46.1125595,25.1747404 49.9800595,23.6853787 53.5500595,22.4938894 C57.1200595,21.3024 59.5000595,21.2937617 59.5000595,21.2937617 C59.5000595,21.2937617 61.8800595,21.3024 65.4500595,22.4938894 C69.0200595,23.6853787 72.8875595,25.1747404 74.6725595,25.1747404 C76.4575595,25.1747404 89.6963095,22.6428255 89.6963095,22.6428255 C94.6050595,14.650017 108.885059,15.9406979 108.885059,15.9406979 C103.827559,10.8768681 93.1175595,13.8555915 93.1175595,13.8555915"/>
    <path id="ui-logo-d" d="M88.4657534,101 L121.848038,101 C123.209836,101 124.313792,102.103955 124.313792,103.465753 L124.313792,129.534247 C124.313792,130.896045 123.209836,132 121.848038,132 L93.1009455,132 L88.4657534,132 C87.1039554,132 86,130.896045 86,129.534247 L86,103.465753 C86,102.103955 87.1039554,101 88.4657534,101 Z"/>
    <filter id="ui-logo-c" width="126.1%" height="132.3%" x="-13.1%" y="-12.9%" filterUnits="objectBoundingBox">
      <feOffset dy="1" in="SourceAlpha" result="shadowOffsetOuter1"/>
      <feGaussianBlur in="shadowOffsetOuter1" result="shadowBlurOuter1" stdDeviation="1.5"/>
      <feColorMatrix in="shadowBlurOuter1" values="0 0 0 0 0   0 0 0 0 0   0 0 0 0 0  0 0 0 0.3 0"/>
    </filter>
  </defs>
  <g fill="none" fill-rule="evenodd">
    <g transform="translate(11)">
      <path fill="url(#ui-logo-a)" d="M114.835059,33.515166 L118.10756,25.4726128 C118.10756,25.4726128 113.94256,21.0045277 108.88506,15.9406979 C103.82756,10.8768681 93.1175595,13.8555915 93.1175595,13.8555915 L80.9200595,5.95744681e-05 L59.5000595,5.95744681e-05 L38.0800595,5.95744681e-05 L25.8825595,13.8555915 C25.8825595,13.8555915 15.1725595,10.8768681 10.1150595,15.9406979 C5.0575595,21.0045277 0.8925595,25.4726128 0.8925595,25.4726128 L4.1650595,33.515166 L5.95e-05,45.4300596 C5.95e-05,45.4300596 12.249622,91.8847404 13.6850595,97.5577191 C16.5113095,108.727932 18.4450595,113.047081 26.4775595,118.706655 C34.5100595,124.36623 49.0875595,134.196017 51.4675595,135.685379 C53.8475595,137.17474 56.8225595,139.711719 59.5000595,139.711719 C62.1775595,139.711719 65.1525595,137.17474 67.5325595,135.685379 C69.9125595,134.196017 84.4900595,124.36623 92.5225595,118.706655 C100.555059,113.047081 102.48881,108.727932 105.31506,97.5577191 C106.7502,91.8847404 119.00006,45.4300596 119.00006,45.4300596 L114.835059,33.515166 Z"/>
      <path fill="#FFF" d="M89.6963095,22.6428255 C89.6963095,22.6428255 105.38527,41.6321872 105.38527,45.6906979 C105.38527,49.7492085 103.411655,50.8203574 101.42733,52.9301872 C99.4430045,55.040017 90.776532,64.2544 89.6635845,65.4375489 C88.550637,66.6209957 86.233707,68.4150809 87.5965545,71.6443149 C88.959402,74.8735489 90.969907,78.9826979 88.7341945,83.1505277 C86.4981845,87.3183574 82.667872,90.1001872 80.213497,89.6402723 C77.759122,89.1800596 71.9950595,86.1641021 69.875372,84.7864426 C67.7556845,83.408783 61.0375395,77.8612085 61.0375395,75.7385702 C61.0375395,73.6162298 67.982082,69.8052511 69.264902,68.9393362 C70.548317,68.0737191 76.400142,64.7223574 76.5200345,63.4069532 C76.6396295,62.0912511 76.594112,61.7055064 74.8671245,58.4551234 C73.140137,55.2044426 70.030072,50.8668255 70.547722,47.9807404 C71.065372,45.0949532 76.081222,43.5942723 79.660742,42.2407404 C83.239667,40.8875064 90.1312545,38.3314638 90.991922,37.9341021 C91.8531845,37.5364426 91.6306545,37.1578468 89.022472,36.9103149 C86.4148845,36.662783 79.0142745,35.6792085 75.677812,36.6103574 C72.3413495,37.5415064 66.6412495,38.9581872 66.1795295,39.7094213 C65.7178095,40.4606553 65.310532,40.4859745 65.784747,43.0774638 C66.2586645,45.6689532 68.6999495,58.1039319 68.9367595,60.3126553 C69.173867,62.5213787 69.637372,63.9815489 67.2588595,64.5260596 C64.8800495,65.0705702 60.875997,66.016017 59.5000595,66.016017 C58.124122,66.016017 54.119772,65.0705702 51.7412595,64.5260596 C49.3624495,63.9815489 49.8259545,62.5213787 50.063062,60.3126553 C50.3001695,58.1039319 52.741157,45.6689532 53.215372,43.0774638 C53.6892895,40.4859745 53.282012,40.4606553 52.8205895,39.7094213 C52.3588695,38.9581872 46.658472,37.5415064 43.3220095,36.6103574 C39.985547,35.6792085 32.5852345,36.662783 29.9773495,36.9103149 C27.3694645,37.1578468 27.1469345,37.5364426 28.0078995,37.9341021 C28.8688645,38.3314638 35.760452,40.8875064 39.339377,42.2407404 C42.9185995,43.5942723 47.934747,45.0949532 48.452397,47.9807404 C48.970047,50.8668255 45.8596845,55.2044426 44.1329945,58.4551234 C42.406007,61.7055064 42.360192,62.0912511 42.4800845,63.4069532 C42.5996795,64.7223574 48.451802,68.0737191 49.7349195,68.9393362 C51.018037,69.8052511 57.962282,73.6162298 57.962282,75.7385702 C57.962282,77.8612085 51.2444345,83.408783 49.124747,84.7864426 C47.0050595,86.1641021 41.240997,89.1800596 38.786622,89.6402723 C36.332247,90.1001872 32.5019345,87.3183574 30.2659245,83.1505277 C28.030212,78.9826979 30.040717,74.8735489 31.403267,71.6443149 C32.7661145,68.4150809 30.449482,66.6209957 29.336237,65.4375489 C28.223587,64.2544 19.556817,55.040017 17.572492,52.9301872 C15.588167,50.8203574 13.6148495,49.7492085 13.6148495,45.6906979 C13.6148495,41.6321872 29.3038095,22.6428255 29.3038095,22.6428255 C29.3038095,22.6428255 42.5425595,25.1747404 44.3275595,25.1747404 C46.1125595,25.1747404 49.9800595,23.6853787 53.5500595,22.4938894 C57.1200595,21.3024 59.5000595,21.2937617 59.5000595,21.2937617 C59.5000595,21.2937617 61.8800595,21.3024 65.4500595,22.4938894 C69.0200595,23.6853787 72.8875595,25.1747404 74.6725595,25.1747404 C76.4575595,25.1747404 89.6963095,22.6428255 89.6963095,22.6428255 Z M77.934885,95.2809021 C78.905925,95.8897532 78.3136025,97.0374553 77.429135,97.663583 C76.54437,98.2897106 64.6559725,107.507072 63.5022675,108.525796 C62.348265,109.544817 60.6528125,111.227498 59.5,111.227498 C58.3471875,111.227498 56.6514375,109.544817 55.4977325,108.525796 C54.34373,107.507072 42.45563,98.2897106 41.570865,97.663583 C40.6861,97.0374553 40.094075,95.8897532 41.065115,95.2809021 C42.0364525,94.6723489 45.07482,93.1362213 49.2674875,90.9638383 C53.45956,88.7917532 58.6845525,86.9449447 59.5,86.9449447 C60.3154475,86.9449447 65.5401425,88.7917532 69.73281,90.9638383 C73.92518,93.1362213 76.9635475,94.6723489 77.934885,95.2809021 Z"/>
      <use fill="url(#ui-logo-a)" xlink:href="#ui-logo-b"/>
    </g>
    <use fill="#000" filter="url(#ui-logo-c)" xlink:href="#ui-logo-d"/>
    <use fill="#F2F2F2" xlink:href="#ui-logo-d"/>
    <path fill="#2F2F2F" d="M104.5875,111.225 L107.4375,111.225 L107.4375,125 L104.5875,125 L104.5875,122.825 C103.687495,124.408341 102.220844,125.2 100.1875,125.2 C98.6374922,125.2 97.3583384,124.687505 96.35,123.6625 C95.3416616,122.637495 94.8375,121.200009 94.8375,119.35 L94.8375,111.225 L97.6625,111.225 L97.6625,118.925 C97.6625,120.158339 97.9708303,121.104163 98.5875,121.7625 C99.2041698,122.420837 100.045828,122.75 101.1125,122.75 C102.179172,122.75 103.024997,122.420837 103.65,121.7625 C104.275003,121.104163 104.5875,120.158339 104.5875,118.925 L104.5875,111.225 Z M114.4375,107.575 C114.4375,108.091669 114.262502,108.524998 113.9125,108.875 C113.562498,109.225002 113.133336,109.4 112.625,109.4 C112.116664,109.4 111.687502,109.225002 111.3375,108.875 C110.987498,108.524998 110.8125,108.091669 110.8125,107.575 C110.8125,107.058331 110.987498,106.625002 111.3375,106.275 C111.687502,105.924998 112.116664,105.75 112.625,105.75 C113.133336,105.75 113.562498,105.924998 113.9125,106.275 C114.262502,106.625002 114.4375,107.058331 114.4375,107.575 Z M111.1875,125 L111.1875,111.225 L114.0375,111.225 L114.0375,125 L111.1875,125 Z"/>
  </g>
</svg>
