<?xml version="1.0" encoding="UTF-8"?>
<svg width="82px" height="72px" viewBox="0 0 82 72" version="1.1" xmlns="http://www.w3.org/2000/svg" xmlns:xlink="http://www.w3.org/1999/xlink">
    <!-- Generator: Sketch 50.2 (55047) - http://www.bohemiancoding.com/sketch -->
    <title>wallet</title>
    <desc>Created with Sketch.</desc>
    <defs></defs>
    <g id="settings" stroke="none" stroke-width="1" fill="none" fill-rule="evenodd" stroke-linecap="round">
        <g id="5-wallet" transform="translate(-2432.000000, -116.000000)" stroke="#FFFFFF" stroke-width="1.25">
            <g id="wallet" transform="translate(2417.000000, 88.000000)">
                <g id="header" transform="translate(12.000000, 0.000000)">
                    <g id="bat" opacity="0.310745018" transform="translate(0.000000, 24.000000)">
                        <path d="M21.4997952,0.25 C22.1980333,0.25 22.8962714,0.588 23.2832714,1.266 L32.8292714,17.95 L42.4858429,34.826 C42.8626048,35.48 42.8032238,36.21 42.4592238,36.776" id="Stroke-1" opacity="0.260869565"></path>
                        <path d="M42.4598381,36.7764 C42.1158381,37.3444 41.4790286,37.7504 40.702981,37.7504 L21.5004095,37.7504 L2.2978381,37.7504 C1.51974286,37.7504 0.882933333,37.3444 0.538933333,36.7764" id="Stroke-3" opacity="0.260869565"></path>
                        <path d="M21.4997952,0.25 C20.8015571,0.25 20.103319,0.588 19.716319,1.266 L10.170319,17.95 L0.513747619,34.826 C0.136985714,35.48 0.196366667,36.21 0.540366667,36.776" id="Stroke-5" opacity="0.260869565"></path>
                        <polyline id="Stroke-7" opacity="0.260869565" points="21.4997952 14.9166667 17.0196048 22.2158895 12.6269841 28.3333333"></polyline>
                        <polyline id="Stroke-9" opacity="0.260869565" points="29.0079365 28.3333333 25.2530078 21.625 21.4997952 14.9166667"></polyline>
                        <polyline id="Stroke-11" opacity="0.260869565" points="30.4581286 29.75 21.4997952 29.75 12.5414619 29.75"></polyline>
                    </g>
                    <g id="bat" opacity="0.495754076" transform="translate(51.500000, 78.500000) rotate(39.000000) translate(-51.500000, -78.500000) translate(19.000000, 49.000000)">
                        <path d="M32.5,0 C33.5681961,0 34.6363922,0.527459892 35.2284422,1.58550074 L49.8323428,27.6214204 L64.6054006,53.9569622 C65.181788,54.9775502 65.0909443,56.1167388 64.5646776,57" id="Stroke-1" opacity="0.260869565"></path>
                        <path d="M65,57 C64.4749487,58.136 63.5029788,58.948 62.3184881,58.948 L33.0093752,58.948 L3.70026224,58.948 C2.51264623,58.948 1.54067629,58.136 1.015625,57" id="Stroke-3" opacity="0.260869565"></path>
                        <path d="M32.5,0 C31.4318039,0 30.3636078,0.527459892 29.7715578,1.58550074 L15.1676572,27.6214204 L0.394599367,53.9569622 C-0.18178796,54.9775502 -0.0909443051,56.1167388 0.435322385,57" id="Stroke-5" opacity="0.260869565"></path>
                        <polyline id="Stroke-7" opacity="0.260869565" points="32.5 23 25.8332837 34.4248705 19.296875 44"></polyline>
                        <polyline id="Stroke-9" opacity="0.260869565" points="43.671875 44 38.0846607 33.5 32.5 23"></polyline>
                        <polyline id="Stroke-11" opacity="0.260869565" points="46.71875 46 33.0078125 46 19.296875 46"></polyline>
                    </g>
                    <g id="bat" opacity="0.495754076" transform="translate(57.500000, 25.500000) rotate(-29.000000) translate(-57.500000, -25.500000) translate(38.000000, 8.000000)">
                        <path d="M19.2042595,0 C19.8354569,0 20.4666542,0.308429577 20.8164968,0.927113757 L29.4459459,16.1514897 L38.1753501,31.5510682 C38.5159375,32.147852 38.462258,32.8139869 38.1512868,33.3304696" id="Stroke-1" opacity="0.260869565"></path>
                        <path d="M38.408519,33.3304696 C38.098266,33.99474 37.5239287,34.469553 36.8240128,34.469553 L19.5052494,34.469553 L2.18648603,34.469553 C1.48472339,34.469553 0.910386067,33.99474 0.600133109,33.3304696" id="Stroke-3" opacity="0.260869565"></path>
                        <path d="M19.2042595,0 C18.5730621,0 17.9418647,0.308429577 17.5920222,0.927113757 L8.96257304,16.1514897 L0.233168881,31.5510682 C-0.107418559,32.147852 -0.0537390164,32.8139869 0.257232124,33.3304696" id="Stroke-5" opacity="0.260869565"></path>
                        <polyline id="Stroke-7" opacity="0.260869565" points="19.2042595 13.4491368 15.2648948 20.1297736 11.4025291 25.7287835"></polyline>
                        <polyline id="Stroke-9" opacity="0.260869565" points="25.8057237 25.7287835 22.5042371 19.5889602 19.2042595 13.4491368"></polyline>
                        <polyline id="Stroke-11" opacity="0.260869565" points="27.606123 26.8982737 19.504326 26.8982737 11.4025291 26.8982737"></polyline>
                    </g>
                </g>
            </g>
        </g>
    </g>
</svg>