<?xml version="1.0" encoding="UTF-8"?>
<svg width="14px" height="16px" viewBox="0 0 14 16" version="1.1" xmlns="http://www.w3.org/2000/svg" xmlns:xlink="http://www.w3.org/1999/xlink">
    <!-- Generator: Sketch 50.2 (55047) - http://www.bohemiancoding.com/sketch -->
    <title>icn-verify</title>
    <desc>Created with Sketch.</desc>
    <defs>
        <polygon id="path-1" points="0.00914285714 0.144533333 13.0927238 0.144533333 13.0927238 15.9999238 0.00914285714 15.9999238"></polygon>
    </defs>
    <g id="settings" stroke="none" stroke-width="1" fill="none" fill-rule="evenodd">
        <g id="1-full" transform="translate(-279.000000, -943.000000)">
            <g id="2" transform="translate(223.000000, 654.000000)">
                <g id="site-list" transform="translate(36.000000, 208.000000)">
                    <g id="Group-11" transform="translate(1.000000, 73.000000)">
                        <g id="icn-verify" transform="translate(19.000000, 8.000000)">
                            <g id="Group-3">
                                <mask id="mask-2" fill="white">
                                    <use xlink:href="#path-1"></use>
                                </mask>
                                <g id="Clip-2"></g>
                                <path d="M6.34468571,0.205561905 L0.161980952,4.32731429 C0.0608,4.39481905 0,4.50834286 0,4.62994286 L0,11.5145143 C0,11.6361143 0.0608,11.7496381 0.161980952,11.8169905 L6.34468571,15.9388952 C6.46674286,16.0202667 6.62598095,16.0202667 6.74819048,15.9388952 L12.9308952,11.8169905 C13.0320762,11.7496381 13.0927238,11.6361143 13.0927238,11.5145143 L13.0927238,4.62994286 C13.0927238,4.50834286 13.0320762,4.39481905 12.9308952,4.32731429 L6.74819048,0.205561905 C6.62598095,0.124190476 6.46674286,0.124190476 6.34468571,0.205561905" id="Fill-1" fill="#392DD1" mask="url(#mask-2)"></path>
                            </g>
                            <path d="M3.39550476,6.88152381 L2.80106667,7.47580952 C2.74422857,7.53264762 2.74422857,7.6248381 2.80106667,7.68152381 L5.89866667,10.7791238 L10.5965714,6.80868571 C10.6534095,6.75184762 10.6534095,6.65980952 10.5965714,6.60297143 L10.0021333,6.00853333 C9.94529524,5.95184762 9.85325714,5.95184762 9.79641905,6.00853333 L6.00152381,9.07611429 C5.94468571,9.1328 5.85264762,9.1328 5.79580952,9.07611429 L3.60121905,6.88152381 C3.54438095,6.82468571 3.45219048,6.82468571 3.39550476,6.88152381" id="Fill-4" fill="#FFFFFE"></path>
                        </g>
                    </g>
                </g>
            </g>
        </g>
    </g>
</svg>