<?xml version="1.0" encoding="UTF-8"?>
<svg width="22px" height="16px" viewBox="0 0 22 16" version="1.1" xmlns="http://www.w3.org/2000/svg" xmlns:xlink="http://www.w3.org/1999/xlink">
    <!-- Generator: Sketch 50.2 (55047) - http://www.bohemiancoding.com/sketch -->
    <title>youtube (1)</title>
    <desc>Created with Sketch.</desc>
    <defs></defs>
    <g id="BR-panel" stroke="none" stroke-width="1" fill="none" fill-rule="evenodd">
        <g id="old-vs" transform="translate(-595.000000, -375.000000)" fill="#D9292A">
            <g id="panel" transform="translate(563.000000, 42.000000)">
                <g id="tipping" transform="translate(1.000000, 307.000000)">
                    <path d="M44.8730057,34.8364374 L39.3189423,37.9739511 C39.1709485,38.0575514 39,37.9297505 39,37.7355704 L39,31.2644321 C39,31.0674862 39.1754425,30.9398419 39.3237447,31.0288694 L44.8778081,34.362494 C45.0429408,34.4615931 45.040077,34.7420871 44.8730057,34.8364374 Z M48.4308819,26 L35.5691181,26 C33.0456615,26 31,28.1024597 31,30.6959806 L31,37.3040194 C31,39.8975403 33.0456615,42 35.5691181,42 L48.4308819,42 C50.9543385,42 53,39.8975403 53,37.3040194 L53,30.6959806 C53,28.1024597 50.9543385,26 48.4308819,26 Z" id="youtube-(1)"></path>
                </g>
            </g>
        </g>
    </g>
</svg>