<?xml version="1.0" encoding="UTF-8"?>
<svg width="17px" height="14px" viewBox="0 0 17 14" version="1.1" xmlns="http://www.w3.org/2000/svg" xmlns:xlink="http://www.w3.org/1999/xlink">
    <!-- Generator: sketchtool 50.2 (55047) - http://www.bohemiancoding.com/sketch -->
    <title>DCB35B72-B0CD-40BF-96E6-B494C1E77828</title>
    <desc>Created with sketchtool.</desc>
    <defs></defs>
    <g id="donation/tipping/tweet-overlay" stroke="none" stroke-width="1" fill="none" fill-rule="evenodd">
        <g id="tip-panels" transform="translate(-651.000000, -565.000000)">
            <g id="tip-panel-blue" transform="translate(624.000000, 485.000000)">
                <g id="btn" transform="translate(15.000000, 72.000000)">
                    <g id="BAT_logo" transform="translate(12.800000, 8.000000)">
                        <polyline id="Fill-3" fill="#8D2557" points="8.00320746 0 8 9.08547718 16 13.6 8.00320746 0"></polyline>
                        <polyline id="Fill-5" fill="#DE4E2A" points="0 13.6 7.99242626 9.09844045 8 0 0 13.6"></polyline>
                        <polyline id="Fill-6" fill="#582D7A" points="16 13.5991799 8.01574745 9.6 0 13.6 16 13.5991799"></polyline>
                        <polygon id="Fill-7" fill="#FFFFFE" points="4.8 10.4 10.4 10.4 7.57817043 5.6"></polygon>
                        <polyline id="Fill-8" fill="#DE4E2A" points="7.17539421 4.90146415 7.13230573 4.87542364 4 10.4 10.4 10.4 7.17505404 4.8 7.13230573 4.87542364 7.17539421 4.90146415 7.13253251 4.92797386 10.2243577 10.2966591 4.17428156 10.2966591 7.21848269 4.92762196 7.17539421 4.90146415 7.13253251 4.92797386 7.17539421 4.90146415"></polyline>
                    </g>
                </g>
            </g>
        </g>
    </g>
</svg>