<?xml version="1.0" encoding="UTF-8"?>
<svg width="21px" height="20px" viewBox="0 0 21 20" version="1.1" xmlns="http://www.w3.org/2000/svg" xmlns:xlink="http://www.w3.org/1999/xlink">
    <!-- Generator: Sketch 50.2 (55047) - http://www.bohemiancoding.com/sketch -->
    <title>settings</title>
    <desc>Created with Sketch.</desc>
    <defs></defs>
    <g id="settings" stroke="none" stroke-width="1" fill="none" fill-rule="evenodd" stroke-linecap="round" stroke-linejoin="round">
        <g id="collapsed" transform="translate(-762.000000, -728.000000)" stroke="#A1A8F2" stroke-width="1.25">
            <g id="2" transform="translate(223.000000, 654.000000)">
                <g id="settings" transform="translate(550.000000, 84.000000) scale(1, -1) translate(-550.000000, -84.000000) translate(540.000000, 74.000000)">
                    <path d="M11.7567,10 L0.6247,10" id="Stroke-1"></path>
                    <path d="M19.3748,10 L16.5068,10" id="Stroke-3"></path>
                    <path d="M16.5067,10 C16.5067,11.312 15.4437,12.375 14.1317,12.375 C12.8197,12.375 11.7567,11.312 11.7567,10 C11.7567,8.688 12.8197,7.625 14.1317,7.625 C15.4437,7.625 16.5067,8.688 16.5067,10 Z" id="Stroke-5"></path>
                    <path d="M8.244,17 L19.375,17" id="Stroke-7"></path>
                    <path d="M0.463099091,17 L3.869,17" id="Stroke-9"></path>
                    <path d="M4.494,17 C4.494,15.688 5.557,14.625 6.869,14.625 C8.181,14.625 9.244,15.688 9.244,17 C9.244,18.312 8.181,19.375 6.869,19.375 C5.557,19.375 4.494,18.312 4.494,17 Z" id="Stroke-11"></path>
                    <path d="M5.4002,3 L0.6252,3" id="Stroke-13"></path>
                    <path d="M19.3748,3 L10.1498,3" id="Stroke-15"></path>
                    <path d="M11.1502,3 C11.1502,4.312 10.0872,5.375 8.7752,5.375 C7.4632,5.375 6.4002,4.312 6.4002,3 C6.4002,1.688 7.4632,0.625 8.7752,0.625 C10.0872,0.625 11.1502,1.688 11.1502,3 Z" id="Stroke-17"></path>
                </g>
            </g>
        </g>
    </g>
</svg>