<?xml version="1.0" encoding="UTF-8"?>
<svg width="42px" height="42px" viewBox="0 0 42 42" version="1.1" xmlns="http://www.w3.org/2000/svg" xmlns:xlink="http://www.w3.org/1999/xlink">
    <!-- Generator: Sketch 50.2 (55047) - http://www.bohemiancoding.com/sketch -->
    <title>warning</title>
    <desc>Created with Sketch.</desc>
    <defs></defs>
    <g id="settings" stroke="none" stroke-width="1" fill="none" fill-rule="evenodd">
        <g id="5-wallet" transform="translate(-1721.000000, -217.000000)">
            <g id="2-balance-zero" transform="translate(1702.000000, 116.000000)">
                <g id="msg" transform="translate(-2.000000, 72.000000)">
                    <g id="warning" transform="translate(22.000000, 30.000000)">
                        <circle id="Oval" stroke="#F43405" cx="20" cy="20" r="20"></circle>
                        <path d="M21.8121295,27.1340629 C21.8121295,27.6557254 21.6315568,28.0971254 21.2704058,28.4582763 C20.9092549,28.8194273 20.4645109,29 19.9361605,29 C19.4078101,29 18.9630661,28.8194273 18.6019152,28.4582763 C18.2407643,28.0971254 18.0601915,27.6523814 18.0601915,27.124031 C18.0601915,26.5956806 18.2407643,26.1509366 18.6019152,25.7897857 C18.9630661,25.4286348 19.4078101,25.248062 19.9361605,25.248062 C20.4645109,25.248062 20.9092549,25.4286348 21.2704058,25.7897857 C21.6315568,26.1509366 21.8121295,26.5990245 21.8121295,27.1340629 Z M18.4012768,23.0319197 L18,13 L21.7118103,13 L21.3105335,23.0319197 L18.4012768,23.0319197 Z" id="!" fill="#F43405"></path>
                    </g>
                </g>
            </g>
        </g>
    </g>
</svg>