<svg width="80" height="80" xmlns="http://www.w3.org/2000/svg" xmlns:xlink="http://www.w3.org/1999/xlink">
  <defs>
    <path id="a" d="M0 0h79.97v22.431H0z"/>
  </defs>
  <g fill="none" fill-rule="evenodd">
    <path d="M47.277 41.29c-2.439-.296-5.338.196-8.617 1.46a34.916 34.916 0 0 0-5.01 2.42c-1.157-1.82-4.914-9.657-6.29-12.843-.69-1.6-2.984-4.805-5.3-3.912a2.086 2.086 0 0 0-1.181 1.162c-.78 1.82.476 4.854.53 4.983 1.813 4.32 6.817 16.014 7.371 17.311.085.198.198.444.33.73.313.678.744 1.61 1.026 2.442.374 1.103.294 1.468.271 1.537a1.028 1.028 0 0 1-.238.13c-1.563.603-4.689-2.323-5.876-3.75-1.084-1.305-3.373-1.99-4.803-1.44-.573.221-.98.635-1.144 1.163-.237.763.023 1.704.772 2.795l.045.069c1.083 1.693 4.105 6.01 8.769 9.516 2.99 2.248 6.113 3.748 9.284 4.458 3.935.88 7.955.546 11.949-.995 4.284-1.653 6.724-4.86 7.252-9.534.522-4.604-1.032-9.479-2.005-11.975-1.32-3.386-3.72-5.313-7.135-5.727z" fill="#A1A8F2"/>
    <g transform="translate(0 10)">
      <mask id="b" fill="#fff">
        <use xlink:href="#a"/>
      </mask>
      <path d="M18.34 8.24c-.066 0-.13.003-.194.01l-.713.08v6.243h1.072c.957 0 2.229-.305 2.229-2.93 0-2.338-1.241-3.403-2.393-3.403zM27.392 7.826c-1.717 0-2.175 1.913-2.175 3.044 0 1.13.458 3.043 2.175 3.043 1.716 0 2.173-1.913 2.173-3.043 0-1.131-.457-3.044-2.173-3.044zM43.478 12.174h1.74l-.883-2.609z" fill="#696FDC" mask="url(#b)"/>
      <path d="M68.876.094H11.108C4.973.094 0 5.115 0 11.31c0 6.194 4.973 11.215 11.108 11.215h8c-.089-.97-.03-2.003.353-2.908.416-.988 1.178-1.74 2.142-2.118a3.943 3.943 0 0 1 1.445-.275c3.156 0 5.433 3.724 6.043 5.159l.062.142h39.724c6.134 0 11.107-5.02 11.107-11.215S75.01.094 68.876.094zM18.533 16.1c-.265 0-.529-.02-.783-.04-.357-.029-.812-.051-1.092-.019l-1.244.146a.598.598 0 0 1-.656-.502l-.052-.328a.604.604 0 0 1 .53-.694l.597-.058V8.3l-.65-.142a.6.6 0 0 1-.47-.613l.01-.209a.6.6 0 0 1 .688-.569l.198.034c.278.047.564.096.838.096.24 0 .478-.036.752-.077a6.543 6.543 0 0 1 1.006-.096c2.574 0 4.172 1.818 4.172 4.747 0 4.03-2.409 4.63-3.844 4.63zm8.745.174c-2.616 0-3.786-2.442-3.786-4.862s1.17-4.863 3.786-4.863 3.786 2.442 3.786 4.863c0 2.42-1.17 4.862-3.786 4.862zm12.235-8.022h-.305V15.5a.597.597 0 0 1-.595.601h-.539a.594.594 0 0 1-.515-.3l-3.322-5.8v4.572h.719c.329 0 .595.269.595.6v.327a.598.598 0 0 1-.595.601h-2.782a.598.598 0 0 1-.595-.6v-.327c0-.332.266-.601.595-.601h.463v-6.32h-.463a.598.598 0 0 1-.595-.6v-.328c0-.332.266-.601.595-.601h1.667c.214 0 .411.115.517.303l3.25 5.747v-4.52h-.747a.598.598 0 0 1-.596-.602v-.326c0-.333.267-.602.596-.602h2.652c.329 0 .596.269.596.602v.326a.598.598 0 0 1-.596.601zm9.284 7.247a.598.598 0 0 1-.595.601h-2.41a.598.598 0 0 1-.596-.6v-.327c0-.332.267-.601.596-.601h.476l-.42-1.14h-2.902l-.412 1.14h.495c.329 0 .595.269.595.6v.327a.598.598 0 0 1-.595.601h-2.381a.598.598 0 0 1-.596-.6v-.327c0-.332.266-.601.596-.601h.23l2.937-7.84a.595.595 0 0 1 .552-.388h.004c.245 0 .465.151.554.382l3.044 7.846h.233c.328 0 .595.269.595.6v.327zm8.115-5.611a.598.598 0 0 1-.595.6h-.41a.598.598 0 0 1-.594-.6v-.857c0-.527-.046-.668-.072-.704-.007-.004-.112-.075-.643-.075h-.8v6.319h1.276c.33 0 .596.269.596.602v.326a.598.598 0 0 1-.596.601H50.92a.598.598 0 0 1-.596-.6v-.327c0-.333.267-.602.596-.602h1.277V8.253h-.801c-.53 0-.636.07-.646.078-.023.033-.068.174-.068.7v.858a.598.598 0 0 1-.596.6h-.409a.599.599 0 0 1-.596-.6V7.325c0-.332.267-.601.596-.601h6.64c.329 0 .594.269.594.6V9.89zm8.373 5.611a.597.597 0 0 1-.595.601h-6.582a.598.598 0 0 1-.595-.6v-.327c0-.332.266-.601.595-.601h.833v-6.32h-.833a.598.598 0 0 1-.595-.6v-.328c0-.332.266-.601.595-.601h6.311c.329 0 .595.269.595.6v2.03a.598.598 0 0 1-.595.601h-.41a.598.598 0 0 1-.595-.6V9.22c0-.516-.028-.812-.084-.882-.015-.013-.13-.085-.73-.085h-2.058v2.006h1.253c.051-.28.294-.49.585-.49h.41c.33 0 .595.269.595.6v1.453a.598.598 0 0 1-.595.6h-.41a.598.598 0 0 1-.595-.6v-.033h-1.243v2.784h2.315c.828 0 .828 0 .828-1.37v-.035c0-.332.267-.6.596-.6h.409c.33 0 .595.268.595.6V15.5z" fill="#696FDC" mask="url(#b)"/>
    </g>
  </g>
</svg>

