<svg width="100" height="129" xmlns="http://www.w3.org/2000/svg">
<style>
.lionBounce {
  animation: bounce 1s infinite alternate ease-in-out;
}
@keyframes bounce {
  100% {
    transform: translateY(5%);
  }
}
</style>
  <defs>
    <linearGradient x1="0%" y1="50.7055163%" y2="50.7055163%" id="a">
      <stop stop-color="#F50" offset="0%"/>
      <stop stop-color="#FF2000" offset="100%"/>
    </linearGradient>
    <linearGradient x1="2.1484375%" y1="50.7055163%" y2="50.7055163%" id="b">
      <stop stop-color="#FA3F2E" offset="0%"/>
      <stop stop-color="#FF2000" offset="46.1321351%"/>
      <stop stop-color="#FF2000" offset="100%"/>
    </linearGradient>
    <linearGradient x1="50%" y1="100%" x2="96.7673826%" y2="100%" id="c">
      <stop stop-color="#FFF" offset="0%"/>
      <stop stop-color="#F4F4F4" offset="100%"/>
    </linearGradient>
  </defs>
    <g class="lionBounce" fill="none" fill-rule="evenodd">
      <path d="M99.9135084 37.3373994l-3.6157454-9.8480885 2.5119529-5.6572561c.3227035-.7283073.1674636-1.5829036-.3911557-2.1481388l-6.8342232-6.9360853c-2.988674-3.03093558-7.4478488-4.07312622-11.4645288-2.6753647l-1.910551.6645498L68.2274934.01384123H31.5242589L21.6701473 10.8755659l-1.8579895-.6559671c-4.0533508-1.43086641-8.5663096-.3776408-11.57454126 2.701113l-6.95523707 7.0660525c-.44616195.4524334-.5683981 1.1316965-.30925746 1.7116449l2.62441019 5.8718247L.00012224 37.413418l2.3285987 8.8745599L12.9339295 86.738462c1.2211392 4.6641097 4.0350154 8.7482709 7.949017 11.5450201 0 0 12.8763563 9.1099719 25.5828043 17.3837399 1.1172384.728307 2.285816 1.260438 3.539959 1.24082 1.2541429.017165 2.4227205-.512513 3.5375142-1.244498 14.2710708-9.383394 25.5620242-17.4168451 25.5620242-17.4168451 3.9103345-2.8016536 6.7193213-6.8907193 7.935571-11.556055l10.5550917-40.4664236 2.3175975-8.8868209z" fill="url(#a)"/>
      <path d="M31.5654114.0326274l-9.7302605 10.9873927-.8035247-.5544352c-6.4630642-2.00883435-9.2769959-.64684101-13.44639129 3.2299673l-.92316467.9963851 5.09256006-.9963851c1.4072677 0 5.342362.1331198 6.1669648.4164168 3.4733641 1.1951969 4.4373192 2.5934435 6.662768 4.0585628l1.0683278.3593332 10.385697 2.0833428c.6508735.1228025 1.3225455.0899741 1.959961-.0960534l4.8781655-1.6021268c4.4164234-1.7113133 9.2277726-1.7908924 14.2385218 0l4.7857831 1.6215806c.7340678.2346623 1.5146265.2832969 2.2719398.1410405l.8588593-.1629261 10.4934989-2.3441908.1700591-.4219058.7224559-.5828594c4.4637097-3.2483026 8.0169023-4.8221485 14.8676-4.1517252h.5264022l-.3148104-.423842c-5.7109277-4.54350826-9.1929061-3.17781831-12.4008521-2.1246145l-.876676.3000946L68.2814318.0326274H31.5654114z" fill="url(#b)"/>
      <path d="M53.4717845 72.8558024l1.3882408.5763631c1.4959703.62051 3.9027441 1.7290892 5.3460738 2.4636455l4.0961674 2.0847175c1.4433298.73333 1.5473866 2.1067909.2301493 3.0510453l-3.4938619 2.5041136c-1.3172373.9442544-3.3885808 2.5825971-4.6017612 3.6445767-1.2144047 1.0619796-3.1963817 2.7947477-4.4058896 3.8530484-1.2095079 1.0583007-3.1694493 1.0632059-4.3556974.0134893-1.1874723-1.0509428-3.1523105-2.7714479-4.3679394-3.8223908-1.2144047-1.0521691-3.2906449-2.6782488-4.6140033-3.6126927l-3.4816198-2.4648719c-1.3233584-.9368965-1.2290951-2.316489.2068895-3.065761l4.1182029-2.1484853c1.4359846-.7504983 3.834189-1.8737931 5.3301593-2.4943031l1.3882408-.5788157c1.4947461-.6217363 2.8352432-1.131879 2.9784744-1.131879h1.2584758c.142007 0 1.4837283.5064638 2.9796986 1.1282001zm34.9924831-33.0383573l-.2632026.9454807c-.7026898.8780339-2.1839697 2.5629761-3.2930933 3.7463599L74.7128485 55.3792479c-1.1091236 1.1821574-1.7349369 2.6648734-1.1020264 4.1585121l1.3750227 3.3992019c.6316863 1.4924124.6941204 3.9621895.0881422 5.6201531-.6157717 1.6873948-1.6759274 3.178581-3.0653924 4.3153651l-1.0638283.8694499c-1.2548032 1.0264167-3.4779473 1.2962037-4.9408642.5984365l-4.6960245-2.2343266c-1.4616928-.6953146-3.6432141-2.1533905-4.8478252-3.2398962l-4.4426155-4.0051102c-.8667323-.7823822-.9157003-2.1264118-.1089536-2.9676567l10.8194642-7.3210372c1.3417213-.9074653 2.0520044-2.586314 1.2893289-4.0174112L60.1705974 43.5356c-.7626755-1.4323235-1.0675009-3.3343217-.6782059-4.2282976.3905193-.8939759 1.9476995-2.0957542 3.4632569-2.670891l12.5592981-4.6795775c1.5143332-.5751368 1.4335361-1.1686681-.178733-1.3207299l-8.0251318-.5984365c-1.6134933-.1520618-2.7958047.0833887-4.3554333.519953l-6.0739917 1.5071281c-1.5596286.4365644-1.889418 2.1006595-1.5968346 3.6948552l2.5059338 13.6266945c.2938076 1.595422.4370388 3.2018808.3195158 3.5709984-.117523.3691176-1.5057639.9638753-3.0849796 1.3231824l-2.0774645.4721272c-1.5792157.3593072-4.1671709.3752492-5.7500592.0380155l-2.5132791-.5371214c-1.5841125-.33846-2.9760259-.9172756-3.0947732-1.285167-.117523-.3691176.024484-1.978029.3170674-3.5722247l2.4900192-13.6291471c.2925834-1.595422-.0396543-3.2570645-1.5992829-3.6924025l-6.0764402-1.4997703c-1.5596286-.4353381-2.7431642-.6658833-4.3554333-.5138215l-8.0251318.6057943c-1.6122691.1532881-1.691842.7468194-.1775087 1.3195036l12.5666432 4.6660882c1.5143333.5739105 3.0739619 1.7732362 3.4644811 2.6672121.3917434.8927496.0881423 2.7947477-.6720848 4.2270712l-3.8393338 7.0217811c-.7602272 1.4323235-.0487199 3.1111722 1.2942256 4.0174111l10.8292578 7.3100006c.8079709.8400185.7602271 2.1852744-.105281 2.9676566l-4.4389429 4.0112417c-1.2021627 1.087732-3.3824598 2.5470342-4.8441526 3.2460277l-4.6923519 2.2404582c-1.4616927.6977672-3.686061.4316591-4.9408642-.5923051l-1.0638283-.8682235c-1.3919134-1.1355578-2.4545175-2.6255177-3.1217056-4.4465797-.5582344-1.5242964-.4994729-3.9916208.129765-5.4864859l1.3725743-3.3992019c.6304622-1.494865.0022004-2.977581-1.1081474-4.1585121L14.7858951 44.5522063c-1.1091236-1.1809311-2.5928519-2.864647-3.2955417-3.7402284l-.265651-.946707-.1652668-.5273109c-.0159145-.6070206.2007685-2.542129.4468324-3.065761.2460638-.5211793 1.1886965-2.0491546 2.0958274-3.3931842l2.1839697-3.2386699c.9071309-1.3440297 2.4753289-3.4814782 3.4840683-4.7507033l3.2012784-4.0222784c1.0087394-1.2679988 1.8693508-2.3005471 1.9991158-2.2919629.006121-.0085842 1.3123405.2354504 2.9025741.5408002l4.8490493.9332176c1.5902336.3053498 3.3445097.6413572 3.8990715.7455931.5533376.1054622 2.2672152-.2182822 3.8084808-.7186144l3.4877408-1.1318789c1.5400414-.5015585 3.8782601-1.1613103 5.1942733-1.4678864l1.2193014.0183946 1.2193015-.0196209c1.3160131.3041235 3.6542318.9614227 5.1954974 1.4605286l3.4901893 1.1282c1.5412656.4991059 3.2551432.8203976 3.8084808.7149355.5545618-.1054622 2.3076137-.4451485 3.8978473-.7529509l4.8478251-.9368966c1.5902335-.3078024 2.8964531-.5530633 2.9894921-.5457055.042847-.0073578.9034584 1.0215116 1.9146461 2.2907367l3.2061753 4.0185995c1.0111877 1.2667724 2.5806099 3.4017684 3.4901892 4.745798l2.1876423 3.234991c.9083551 1.3428033 2.3272009 3.786828 2.4153432 4.3423439.0905907.5555159.1505764 1.5071281.135886 2.1141488l-.1652668.5273109z" fill="url(#c)"/>
    </g>
</svg>
