<?xml version="1.0" encoding="UTF-8"?>
<svg width="18px" height="18px" viewBox="0 0 18 18" version="1.1" xmlns="http://www.w3.org/2000/svg" xmlns:xlink="http://www.w3.org/1999/xlink">
    <!-- Generator: Sketch 50.2 (55047) - http://www.bohemiancoding.com/sketch -->
    <title>Page 1</title>
    <desc>Created with Sketch.</desc>
    <defs></defs>
    <g id="settings" stroke="none" stroke-width="1" fill="none" fill-rule="evenodd">
        <g id="5-wallet" transform="translate(-2464.000000, -658.000000)" fill="#4C54D2">
            <g id="wallet" transform="translate(2417.000000, 88.000000)">
                <g id="tools2" transform="translate(47.000000, 535.000000)">
                    <path d="M16.59375,51.171875 C16.59375,51.40475 16.40475,51.59375 16.171875,51.59375 L6.328125,51.59375 C6.09525,51.59375 5.90625,51.40475 5.90625,51.171875 L5.90625,49.625 L11.671875,49.625 C12.679875,49.625 13.5,48.804875 13.5,47.796875 L13.5,40.05575 C13.5,39.595625 13.327875,39.154625 13.01175,38.81375 L12.866625,38.65625 L16.171875,38.65625 C16.40475,38.65625 16.59375,38.84525 16.59375,39.078125 L16.59375,51.171875 Z M1.40625,47.796875 L1.40625,36.828125 C1.40625,36.59525 1.59525,36.40625 1.828125,36.40625 L6.910875,36.40625 L6.910875,39.581 C6.910875,40.590125 7.731,41.409125 8.739,41.409125 L12.09375,41.409125 L12.09375,47.796875 C12.09375,48.02975 11.90475,48.21875 11.671875,48.21875 L1.828125,48.21875 C1.59525,48.21875 1.40625,48.02975 1.40625,47.796875 Z M10.7415,38.4335 C10.749375,38.441375 10.75725,38.44925 10.764,38.45825 L11.979,39.76775 C12.03975,39.833 12.061125,39.917375 12.072375,40.002875 L8.739,40.002875 C8.50725,40.002875 8.317125,39.813875 8.317125,39.581 L8.317125,36.40625 L8.677125,36.40625 C8.794125,36.40625 8.906625,36.45575 8.987625,36.54125 L10.7415,38.4335 Z M11.561625,37.25 L10.018125,35.586125 C9.67275,35.212625 9.1845,35 8.677125,35 L1.828125,35 C0.820125,35 0,35.820125 0,36.828125 L0,47.796875 C0,48.804875 0.820125,49.625 1.828125,49.625 L4.5,49.625 L4.5,51.171875 C4.5,52.179875 5.320125,53 6.328125,53 L16.171875,53 C17.179875,53 18,52.179875 18,51.171875 L18,39.078125 C18,38.070125 17.179875,37.25 16.171875,37.25 L11.561625,37.25 Z" id="Page-1"></path>
                </g>
            </g>
        </g>
    </g>
</svg>