<?xml version="1.0" encoding="UTF-8"?>
<svg width="20px" height="20px" viewBox="0 0 20 20" version="1.1" xmlns="http://www.w3.org/2000/svg" xmlns:xlink="http://www.w3.org/1999/xlink">
    <!-- Generator: Sketch 50.2 (55047) - http://www.bohemiancoding.com/sketch -->
    <title>wallet (1)</title>
    <desc>Created with Sketch.</desc>
    <defs>
        <polygon id="path-1" points="0.00255319149 0.0280425532 19.971617 0.0280425532 19.971617 20 0.00255319149 20"></polygon>
    </defs>
    <g id="settings" stroke="none" stroke-width="1" fill="none" fill-rule="evenodd">
        <g id="5-wallet" transform="translate(-2629.000000, -624.000000)">
            <g id="wallet" transform="translate(2417.000000, 88.000000)">
                <g id="tools2" transform="translate(47.000000, 535.000000)">
                    <g id="wallet-(1)" transform="translate(165.000000, 1.000000)">
                        <g id="Group-3">
                            <mask id="mask-2" fill="white">
                                <use xlink:href="#path-1"></use>
                            </mask>
                            <g id="Clip-2"></g>
                            <path d="M19.0638298,14.0992766 C19.0638298,14.3497021 18.860383,14.5531915 18.6099149,14.5531915 L15.4326383,14.5531915 C14.4312766,14.5531915 13.6170213,13.7388936 13.6170213,12.7375745 C13.6170213,11.7362553 14.4312766,10.9219574 15.4326383,10.9219574 L18.6099149,10.9219574 C18.860383,10.9219574 19.0638298,11.1254468 19.0638298,11.3758723 L19.0638298,14.0992766 Z M17.2482128,19.0921702 L1.81561702,19.0921702 C1.31514894,19.0921702 0.907787234,18.6848085 0.907787234,18.184383 L0.907787234,7.29076596 C0.907787234,6.79034043 1.31514894,6.38297872 1.81561702,6.38297872 L17.2482128,6.38297872 C17.7486809,6.38297872 18.1560426,6.79034043 18.1560426,7.29076596 L18.1560426,10.0141702 L15.4326383,10.0141702 C13.9308511,10.0141702 12.709234,11.2357872 12.709234,12.7375745 C12.709234,14.2393617 13.9308511,15.4609787 15.4326383,15.4609787 L18.1560426,15.4609787 L18.1560426,18.184383 C18.1560426,18.6848085 17.7486809,19.0921702 17.2482128,19.0921702 Z M12.778383,1.05719149 C12.983617,0.93706383 13.2234043,0.905148936 13.4525532,0.966297872 C13.684383,1.02834043 13.8776596,1.17817021 13.9977872,1.38782979 L13.9987234,1.38948936 L6.9812766,5.47514894 L5.18931915,5.47514894 L12.778383,1.05719149 Z M15.3488511,3.74765957 L16.3378723,5.47514894 L12.3816596,5.47514894 L15.3488511,3.74765957 Z M8.78540426,5.47514894 L14.4497447,2.1772766 L14.8978298,2.95987234 L10.5774468,5.47514894 L8.78540426,5.47514894 Z M19.0638298,10.0977872 L19.0638298,7.29076596 C19.0638298,6.33893617 18.3255319,5.56485106 17.3927234,5.48978723 L14.7859149,0.936595745 C14.5443404,0.515489362 14.1542553,0.214510638 13.6874894,0.0895319149 C13.2229787,-0.0345957447 12.7371489,0.0305531915 12.3213617,0.272595745 L3.38506383,5.47514894 L1.81561702,5.47514894 C0.814255319,5.47514894 0,6.28944681 0,7.29076596 L0,18.184383 C0,19.1857021 0.814255319,20 1.81561702,20 L17.2482128,20 C18.2495745,20 19.0638298,19.1857021 19.0638298,18.184383 L19.0638298,15.3773617 C19.5910213,15.1893617 19.971617,14.6902553 19.971617,14.0992766 L19.971617,11.3758723 C19.971617,10.7848936 19.5910213,10.2857872 19.0638298,10.0977872 Z" id="Fill-1" fill="#4C54D2" mask="url(#mask-2)"></path>
                        </g>
                        <path d="M15.4054244,11.8918919 C14.9584304,11.8918919 14.5945946,12.2557363 14.5945946,12.7027027 C14.5945946,13.1496691 14.9584304,13.5135135 15.4054244,13.5135135 C15.8523804,13.5135135 16.2162162,13.1496691 16.2162162,12.7027027 C16.2162162,12.2557363 15.8523804,11.8918919 15.4054244,11.8918919" id="Fill-4" fill="#4C54D2"></path>
                    </g>
                </g>
            </g>
        </g>
    </g>
</svg>