<?xml version="1.0" encoding="UTF-8"?>
<svg width="21px" height="20px" viewBox="0 0 21 20" version="1.1" xmlns="http://www.w3.org/2000/svg" xmlns:xlink="http://www.w3.org/1999/xlink">
    <!-- Generator: Sketch 50.2 (55047) - http://www.bohemiancoding.com/sketch -->
    <title>Advanced</title>
    <desc>Created with Sketch.</desc>
    <defs></defs>
    <g id="settings" stroke="none" stroke-width="1" fill="none" fill-rule="evenodd" stroke-linecap="round" stroke-linejoin="round">
        <g id="5-wallet" transform="translate(-2628.000000, -658.000000)" stroke="#4C54D2" stroke-width="1.25">
            <g id="wallet" transform="translate(2417.000000, 88.000000)">
                <g id="tools2" transform="translate(47.000000, 535.000000)">
                    <g id="Advanced" transform="translate(165.000000, 36.000000)">
                        <path d="M9.5,15.651354 C9.72887356,15.651354 9.95425287,15.6392094 10.1761379,15.6175226 L11.6114023,17.7888078 C11.7214713,17.9562301 11.932,18.0377726 12.1268046,17.9831218 C13.6337011,17.556325 14.9877241,16.7764667 16.0875402,15.7328965 C16.2325517,15.5958358 16.2648736,15.3754976 16.174023,15.1976656 L14.9781149,12.8797774 C15.2393103,12.521511 15.4655632,12.1380879 15.6525057,11.7321105 L18.2897931,11.5933148 C18.4898391,11.5829051 18.6654253,11.4467119 18.7143448,11.2550003 C18.8977931,10.5323952 19,9.77856106 19,9.00043768 C19,8.22144683 18.8977931,7.46761269 18.7143448,6.74500759 C18.6654253,6.55329603 18.4898391,6.41710276 18.2897931,6.40669308 L15.6525057,6.26789738 C15.4655632,5.86105249 15.2393103,5.47762938 14.9781149,5.12023045 L16.174023,2.80147483 C16.2648736,2.62451031 16.2325517,2.40417214 16.0875402,2.26624392 C14.9877241,1.22354124 13.6337011,0.442815436 12.1268046,0.0168861377 C11.932,-0.0377646683 11.7214713,0.0437778042 11.6114023,0.210332642 L10.1761379,2.38248531 C9.95425287,2.36079849 9.72887356,2.34865386 9.5,2.34865386 C9.27112644,2.34865386 9.04574713,2.36079849 8.82386207,2.38248531 L7.3885977,0.210332642 C7.27852874,0.0437778042 7.068,-0.0377646683 6.8731954,0.0168861377 C5.36629885,0.442815436 4.01227586,1.22354124 2.91333333,2.26624392 C2.76744828,2.40417214 2.73512644,2.62451031 2.82597701,2.80147483 L4.02188506,5.12023045 C3.76068966,5.47762938 3.53443678,5.86105249 3.34749425,6.26789738 L0.710206897,6.40669308 C0.51016092,6.41710276 0.334574713,6.55329603 0.285655172,6.74500759 C0.102206897,7.46761269 0,8.22144683 0,9.00043768 C0,9.77856106 0.102206897,10.5323952 0.285655172,11.2550003 C0.334574713,11.4467119 0.51016092,11.5829051 0.710206897,11.5933148 L3.34749425,11.7321105 C3.53443678,12.1380879 3.76068966,12.521511 4.02188506,12.8797774 L2.82597701,15.1976656 C2.73512644,15.3754976 2.76744828,15.5958358 2.91333333,15.7328965 C4.01227586,16.7764667 5.36629885,17.556325 6.8731954,17.9831218 C7.068,18.0377726 7.27852874,17.9562301 7.3885977,17.7888078 L8.82386207,15.6175226 C9.04574713,15.6392094 9.27112644,15.651354 9.5,15.651354 Z" id="Stroke-1"></path>
                        <path d="M6,9 C6,7.34311111 7.34311111,6 9,6 C10.6568889,6 12,7.34311111 12,9 C12,10.6568889 10.6568889,12 9,12 C7.34311111,12 6,10.6568889 6,9 Z" id="Stroke-3"></path>
                    </g>
                </g>
            </g>
        </g>
    </g>
</svg>