<?xml version="1.0" encoding="UTF-8"?>
<svg width="20px" height="19px" viewBox="0 0 20 19" version="1.1" xmlns="http://www.w3.org/2000/svg" xmlns:xlink="http://www.w3.org/1999/xlink">
    <!-- Generator: Sketch 50.2 (55047) - http://www.bohemiancoding.com/sketch -->
    <title>wallet (2)</title>
    <desc>Created with Sketch.</desc>
    <defs></defs>
    <g id="settings" stroke="none" stroke-width="1" fill="none" fill-rule="evenodd">
        <g id="5-wallet" transform="translate(-2464.000000, -627.000000)" fill="#4C54D2">
            <g id="wallet" transform="translate(2417.000000, 88.000000)">
                <g id="tools2" transform="translate(47.000000, 535.000000)">
                    <path d="M18.880224,11.8610708 L18.4045755,11.8610708 L18.4045755,8.85047324 C18.4045755,7.6194443 17.4528171,6.6217067 16.2880244,6.6217067 L15.8491891,6.6217067 L15.8531883,5.50308521 C15.8531883,4.67379682 15.2133163,4 14.4257815,4 L1.73503761,4 C0.787483529,4 0.0122026877,4.80331914 0,5.80105673 L0,20.5728642 C0,21.4020986 0.639872026,22.0759494 1.42740683,22.0759494 L16.2922287,22.0759494 C17.4610719,22.0759494 18.4085747,21.0737306 18.4085747,19.8471828 L18.4085747,16.832374 L18.8844282,16.832374 C19.4996898,16.832374 20,16.3055383 20,15.6576568 L20,13.0357341 C19.9960008,12.3878525 19.4954855,11.8610708 18.880224,11.8610708 Z M1.76546943,5.06329114 L14.4924058,5.06329114 C14.7350474,5.06329114 14.9367089,5.27189322 14.9367089,5.5284629 L14.9326983,6.65822785 L1.76546943,6.65822785 C1.35011468,6.65822785 1.01265823,6.30192029 1.01265823,5.8630954 C1.01265823,5.42405322 1.35011468,5.06329114 1.76546943,5.06329114 Z M17.4683544,19.820711 C17.4683544,20.4772294 16.959145,21.0126582 16.3350786,21.0126582 L1.45612513,21.0126582 C1.21373488,21.0126582 1.01265823,20.8053537 1.01265823,20.546169 L1.01265823,7.4556962 C1.24262874,7.572359 1.49702816,7.63730363 1.76805567,7.63730363 L16.3350786,7.63730363 C16.959145,7.63730363 17.4683544,8.17273242 17.4683544,8.82919684 L17.4683544,11.8395397 L14.105581,11.8395397 C13.489726,11.8395397 12.9889333,12.3662768 12.9889333,13.0141035 L12.9889333,15.6358043 C12.9889333,16.2836311 13.489726,16.8104222 14.105581,16.8104222 L17.4683544,16.8104222 L17.4683544,19.820711 Z M18.9873418,15.8226836 C18.9873418,15.9009612 18.9300315,15.9620253 18.8563104,15.9620253 L14.0548264,15.9620253 C13.9811564,15.9620253 13.9240506,15.9009612 13.9240506,15.8226836 L13.9240506,13.1773164 C13.9240506,13.1032877 13.9811564,13.0379747 14.0548264,13.0379747 L18.8563104,13.0379747 C18.9260438,13.0379747 18.9873418,13.0990388 18.9873418,13.1773164 L18.9873418,15.8226836 Z" id="wallet-(2)"></path>
                </g>
            </g>
        </g>
    </g>
</svg>