<svg width="80" height="80" xmlns="http://www.w3.org/2000/svg" xmlns:xlink="http://www.w3.org/1999/xlink">
  <defs>
    <path id="a" d="M0 0h76v75.99H0z"/>
  </defs>
  <g fill="none" fill-rule="evenodd">
    <g transform="translate(2 2)">
      <mask id="b" fill="#fff">
        <use xlink:href="#a"/>
      </mask>
      <path d="M72.526 49.815L57.09 65.254a13.85 13.85 0 0 1-7.733 3.919l-10.4 1.6c-.7.107-1.409.16-2.119.16H10.133V50.102l5.842-3.65a13.917 13.917 0 0 1 7.384-2.119h20.667a2.533 2.533 0 0 1 0 5.067H30.708a5.067 5.067 0 0 0 0 10.133h19.244a6.318 6.318 0 0 0 4.297-1.68l13.724-12.666a3.28 3.28 0 0 1 2.28-.851 3.211 3.211 0 0 1 2.271 5.482l.002-.003zM2.533 73.467H7.6V48.133H2.533v25.334zM70.151 41.8a5.726 5.726 0 0 0-3.897 1.52L52.531 55.987A3.79 3.79 0 0 1 49.952 57H30.708a2.533 2.533 0 1 1 0-5.067h13.318a5.067 5.067 0 1 0 0-10.133H23.359c-3.087 0-6.111.867-8.728 2.504l-4.498 2.816V45.6H0V76h10.133v-2.533h26.705c.839 0 1.676-.064 2.505-.192l10.399-1.6a16.362 16.362 0 0 0 9.139-4.63l15.436-15.438A5.706 5.706 0 0 0 76 47.544a5.775 5.775 0 0 0-5.805-5.744h-.044z" fill="#FB542B" mask="url(#b)"/>
      <path d="M32.933 15.2c.519 0 .985-.315 1.177-.797L38 4.677l3.89 9.726c.192.482.658.797 1.177.797h8.866l-7.093 5.32a1.267 1.267 0 0 0-.462 1.346l2.679 9.823-8.215-7.302a1.267 1.267 0 0 0-1.632-.043l-9.143 7.314 3.525-9.691a1.267 1.267 0 0 0-.432-1.447l-7.093-5.32h8.866zm-4.044 6.783L24.143 35.03a1.267 1.267 0 0 0 1.98 1.422l11.833-9.467 10.602 9.423a1.267 1.267 0 0 0 2.063-1.28L47.05 22.031l9.444-7.084a1.267 1.267 0 0 0-.76-2.28H43.924L39.177.797a1.267 1.267 0 0 0-2.352 0l-4.75 11.87H20.268a1.267 1.267 0 0 0-.76 2.28l9.382 7.036z" fill="#D62BA3" mask="url(#b)"/>
    </g>
    <path fill="#9563D4" d="M25 6.828L26.828 5 32 10.172 30.172 12 25 6.828M47 10.172L52.172 5 54 6.828 48.828 12 47 10.172M19 27h7v-2h-7zM54 27h7v-2h-7zM38 40h2v-7h-2z"/>
  </g>
</svg>
